HIERARCHY
ROOT Hips
{
	OFFSET 0.000000 0.000000 0.000000 
	CHANNELS 6 Xposition Yposition Zposition Zrotation Yrotation Xrotation
	JOINT LeftUpLeg
	{
		OFFSET 1.363060 -1.794630 0.839290 
		CHANNELS 3 Zrotation Yrotation Xrotation
		JOINT LeftLeg
		{
			OFFSET 2.448110 -6.726130 0.000000 
			CHANNELS 3 Zrotation Yrotation Xrotation
			JOINT LeftFoot
			{
				OFFSET 2.562200 -7.039590 0.000000 
				CHANNELS 3 Zrotation Yrotation Xrotation
				JOINT LeftToeBase
				{
					OFFSET 0.157640 -0.433110 2.322550 
					CHANNELS 3 Zrotation Yrotation Xrotation
					End Site
					{
						OFFSET 0.000000 0.000000 0.000000 
					}
				}
			}
		}
	}
	JOINT RightUpLeg
	{
		OFFSET -1.305520 -1.794630 0.839290 
		CHANNELS 3 Zrotation Yrotation Xrotation
		JOINT RightLeg
		{
			OFFSET -2.542530 -6.985550 0.000000 
			CHANNELS 3 Zrotation Yrotation Xrotation
			JOINT RightFoot
			{
				OFFSET -2.568260 -7.056230 0.000000 
				CHANNELS 3 Zrotation Yrotation Xrotation
				JOINT RightToeBase
				{
					OFFSET -0.164730 -0.452590 2.363150 
					CHANNELS 3 Zrotation Yrotation Xrotation
					End Site
					{
						OFFSET 0.000000 0.000000 0.000000 
					}
				}
			}
		}
	}
	JOINT Spine
	{
		OFFSET 0.028270 2.035590 -0.193380 
		CHANNELS 3 Zrotation Yrotation Xrotation
		JOINT Spine1
		{
			OFFSET 0.056720 2.048850 -0.042750 
			CHANNELS 3 Zrotation Yrotation Xrotation
			JOINT Neck1
			{
				OFFSET -0.054170 1.746240 0.172020 
				CHANNELS 3 Zrotation Yrotation Xrotation
				JOINT Head
				{
					OFFSET 0.104070 1.761360 -0.123970 
					CHANNELS 3 Zrotation Yrotation Xrotation
					End Site
					{
						OFFSET 0.000000 0.000000 0.000000 
					}
				}
			}
			JOINT LeftArm
			{
				OFFSET 3.362410 1.200890 -0.311210 
				CHANNELS 3 Zrotation Yrotation Xrotation
				JOINT LeftForeArm
				{
					OFFSET 4.983000 -0.000000 -0.000000 
					CHANNELS 3 Zrotation Yrotation Xrotation
					JOINT LeftHand
					{
						OFFSET 3.483560 -0.000000 -0.000000 
						CHANNELS 3 Zrotation Yrotation Xrotation
						JOINT LeftHandIndex1
						{
							OFFSET 0.715260 -0.000000 -0.000000 
							CHANNELS 3 Zrotation Yrotation Xrotation
							End Site
							{
								OFFSET 0.000000 0.000000 0.000000 
							}
						}
					}
				}
			}
			JOINT RightArm
			{
				OFFSET -3.136600 1.374050 -0.404650 
				CHANNELS 3 Zrotation Yrotation Xrotation
				JOINT RightForeArm
				{
					OFFSET -5.241900 -0.000000 -0.000000 
					CHANNELS 3 Zrotation Yrotation Xrotation
					JOINT RightHand
					{
						OFFSET -3.444170 -0.000000 -0.000000 
						CHANNELS 3 Zrotation Yrotation Xrotation
						JOINT RightHandIndex1
						{
							OFFSET -0.622530 -0.000000 -0.000000 
							CHANNELS 3 Zrotation Yrotation Xrotation
							End Site
							{
								OFFSET 0.000000 0.000000 0.000000 
							}
						}
					}
				}
			}
		}
	}
}
MOTION
Frames: 13
Frame Time: 0.041667
0.072595 17.605049 -1.202870 0.905707 -3.299940 3.887335 -24.557214 -7.780245 -7.173982 0.542069 5.400571 19.262449 -0.896907 7.802069 -11.153103 0.689100 -5.307100 -14.786600 25.816695 12.853830 -6.218896 -2.005934 -6.046463 21.527880 0.543357 -8.491117 -12.847540 -0.360300 3.856100 -10.672100 0.623402 3.713180 -1.834064 -1.481600 1.822698 -0.470666 3.897128 -6.390123 7.793170 1.995000 -3.214500 3.212900 -77.422938 -17.336073 63.107395 118.857171 -54.909044 -85.264585 3.278039 -0.133527 -11.530854 -7.125000 0.000000 0.000000 44.381723 31.596776 26.423900 -120.977985 51.904155 -85.252101 -0.209841 -0.342363 -33.283368 7.125000 0.000000 0.000000 
0.069286 17.606217 -1.200826 0.901975 -3.274988 3.947065 -24.534508 -7.815285 -7.204169 0.535998 5.388783 19.222189 -0.904414 7.825299 -11.112092 0.692000 -5.318100 -14.818100 25.820064 12.862823 -6.286735 -2.006248 -6.052852 21.536993 0.554156 -8.559680 -12.837984 -0.353600 3.820500 -10.572200 0.602228 3.725779 -1.854039 -1.524414 1.832535 -0.498126 3.973886 -6.401541 7.731464 2.041600 -3.218800 3.190300 -77.089406 -16.569868 63.006270 119.039584 -54.885996 -85.399958 3.232525 -0.086758 -11.635978 -7.125000 0.000000 0.000000 45.874227 30.522517 27.608745 -121.438835 51.762236 -85.675928 -0.199176 -0.336031 -32.791266 7.125000 0.000000 0.000000 
0.067145 17.606704 -1.198102 0.925087 -3.234230 3.985791 -24.557332 -7.829696 -7.220799 0.533600 5.382718 19.204574 -0.906962 7.823456 -11.071082 0.700500 -5.349700 -14.908800 25.785119 12.791865 -6.342764 -2.005778 -6.053052 21.531878 0.554930 -8.562013 -12.828745 -0.348800 3.794700 -10.499700 0.567169 3.727330 -1.893053 -1.590094 1.837654 -0.573511 4.119755 -6.413281 7.748388 2.137900 -3.224600 3.225600 -76.713256 -15.761887 62.925354 119.155735 -54.874448 -85.484704 3.176473 -0.050003 -11.929696 -7.125000 0.000000 0.000000 47.457304 29.304260 28.832569 -121.850000 51.627185 -86.053497 -0.194817 -0.328593 -32.270388 7.125000 0.000000 0.000000 
0.064907 17.608358 -1.194696 0.919950 -3.194935 4.007740 -24.544131 -7.855220 -7.228219 0.531746 5.376985 19.190960 -0.898239 7.778087 -11.068850 0.681800 -5.279300 -14.706900 25.782954 12.740467 -6.366044 -2.004768 -6.049000 21.521292 0.541699 -8.480381 -12.842448 -0.355100 3.828400 -10.594300 0.511713 3.712444 -2.002759 -1.751943 1.835423 -0.858188 4.220522 -6.419668 7.884389 2.199500 -3.229300 3.311300 -76.280266 -14.767405 62.812039 119.200110 -54.878349 -85.514078 3.119173 -0.047282 -12.305898 -7.125000 0.000000 0.000000 49.169853 27.838399 30.186920 -122.340139 51.466160 -86.503430 -0.186884 -0.322908 -31.703682 7.125000 0.000000 0.000000 
0.060333 17.608455 -1.192068 0.876835 -3.181560 4.095031 -24.461649 -7.864359 -7.274506 0.529304 5.383125 19.183980 -0.906146 7.818562 -11.059881 0.716700 -5.410100 -15.082000 25.864033 12.719342 -6.410151 -2.001319 -6.052997 21.515388 0.539026 -8.453979 -12.822622 -0.361100 3.860400 -10.684200 0.711759 3.881774 -1.540927 -1.068861 1.915991 0.499619 4.195390 -6.603936 7.488070 2.248600 -3.321000 3.151500 -76.598453 -15.146812 62.717475 118.846621 -54.968677 -85.238255 3.038491 -0.076408 -12.836985 -7.125000 0.000000 0.000000 49.478823 26.975242 30.350323 -122.789417 51.392571 -86.893601 -0.181047 -0.320737 -31.478895 7.125000 0.000000 0.000000 
0.055273 17.608358 -1.187592 0.835983 -3.213591 4.087633 -24.400242 -7.858160 -7.272881 0.529855 5.379172 19.182783 -0.900460 7.804742 -11.109850 0.717300 -5.412300 -15.088400 25.915907 12.738169 -6.413008 -2.002074 -6.050818 21.519710 0.533151 -8.421725 -12.842987 -0.342500 3.760600 -10.404000 0.600977 3.856918 -1.887805 -1.450220 1.916599 -0.521349 4.210436 -6.526074 7.734760 2.219700 -3.283700 3.261600 -76.057758 -13.559344 62.425463 119.029360 -54.936712 -85.396147 2.931577 -0.098998 -13.505297 -7.125000 0.000000 0.000000 51.442470 25.143799 32.074570 -123.294517 51.198523 -87.368045 -0.174658 -0.318117 -31.297089 7.125000 0.000000 0.000000 
0.050894 17.607969 -1.183408 0.828905 -3.225269 4.111213 -24.381142 -7.882360 -7.282471 0.530646 5.381011 19.189858 -0.894101 7.788331 -11.154521 0.707200 -5.374700 -14.980300 25.929535 12.736186 -6.446418 -2.004016 -6.055537 21.533203 0.522448 -8.357741 -12.857907 -0.339100 3.742000 -10.351900 0.550933 3.868264 -1.992880 -1.603062 1.927751 -0.839243 4.190339 -6.520664 7.754748 2.180300 -3.278100 3.280600 -75.675483 -12.535168 62.226797 118.999706 -54.951537 -85.370029 2.846637 -0.097958 -13.936127 -7.125000 0.000000 0.000000 52.896369 23.615156 33.260901 -123.614072 51.087232 -87.655832 -0.172033 -0.317137 -31.201697 7.125000 0.000000 0.000000 
0.046904 17.607093 -1.181364 0.886865 -3.196775 4.142043 -24.431922 -7.881173 -7.302514 0.529378 5.378580 19.181940 -0.895918 7.786752 -11.120422 0.716800 -5.410500 -15.083300 25.876475 12.750321 -6.504095 -2.009661 -6.073663 21.575753 0.531162 -8.428084 -12.875358 -0.356000 3.833400 -10.608500 0.541235 3.875525 -1.966164 -1.577024 1.935394 -0.771649 4.199139 -6.532647 7.670801 2.180400 -3.281500 3.256100 -75.408309 -11.742738 62.104476 118.872137 -54.995249 -85.254899 2.786080 -0.090874 -14.017833 -7.125000 0.000000 0.000000 54.090446 22.362658 34.179808 -123.684591 51.065054 -87.708329 -0.173274 -0.321006 -31.249077 7.125000 0.000000 0.000000 
0.042817 17.607580 -1.178639 0.858084 -3.164243 4.197192 -24.382236 -7.925828 -7.338751 0.528491 5.380491 19.179053 -0.897731 7.793305 -11.110453 0.731800 -5.465700 -15.241700 25.921534 12.784099 -6.581905 -2.016318 -6.097344 21.635258 0.545000 -8.519855 -12.868911 -0.348700 3.794400 -10.498800 0.547220 3.908795 -1.947640 -1.558168 1.957279 -0.709842 4.201459 -6.573671 7.606792 2.189100 -3.301900 3.230400 -75.212508 -10.968037 62.086534 118.663542 -55.060514 -85.074191 2.726904 -0.084797 -14.057464 -7.125000 0.000000 0.000000 55.292409 21.059676 35.049391 -123.739438 51.048287 -87.748024 -0.175237 -0.326453 -31.262950 7.125000 0.000000 0.000000 
0.037562 17.606704 -1.175428 0.884498 -3.156296 4.203376 -24.398555 -7.926887 -7.345789 0.531843 5.387547 19.200486 -0.909770 7.847188 -11.089353 0.768400 -5.597600 -15.621200 25.910968 12.804887 -6.602132 -2.023852 -6.116969 21.691464 0.541581 -8.525136 -12.922326 -0.341900 3.757300 -10.394900 0.542692 3.938532 -1.983960 -1.546654 1.978180 -0.862580 4.087642 -6.607620 7.517904 2.121000 -3.320100 3.149700 -74.942764 -10.004077 62.109102 118.489771 -55.120114 -84.911110 2.668961 -0.050146 -14.035062 -7.125000 0.000000 0.000000 56.556327 19.606948 35.962144 -123.779235 51.035985 -87.771780 -0.174255 -0.334074 -31.259281 7.125000 0.000000 0.000000 
0.032794 17.604174 -1.172801 0.910324 -3.159152 4.202355 -24.409297 -7.902302 -7.378628 0.540072 5.406549 19.257755 -0.881653 7.722593 -11.133844 0.729400 -5.456800 -15.216200 25.897417 12.828880 -6.608733 -2.028359 -6.129303 21.726109 0.536096 -8.519457 -12.982953 -0.344200 3.769900 -10.430200 0.518043 4.004561 -2.020026 -1.591351 2.017443 -1.022652 4.023046 -6.656341 7.457508 2.072700 -3.343700 3.099500 -74.604879 -8.960573 62.102954 118.370663 -55.165173 -84.795090 2.606113 -0.022323 -14.067419 -7.125000 0.000000 0.000000 57.837748 18.119139 36.730080 -123.673891 51.069011 -87.660528 -0.173166 -0.345733 -31.105382 7.125000 0.000000 0.000000 
0.030167 17.602811 -1.170465 0.880281 -3.155289 4.231211 -24.366507 -7.913225 -7.438825 0.549150 5.431936 19.324621 -0.874890 7.709385 -11.185647 0.733700 -5.472500 -15.261200 25.932168 12.835328 -6.654322 -2.031603 -6.141355 21.756276 0.530015 -8.496201 -13.016128 -0.341100 3.752900 -10.382600 0.510643 4.073751 -2.022817 -1.617959 2.059066 -1.059567 4.098481 -6.675041 7.443612 2.126000 -3.352800 3.121000 -74.400915 -8.036723 62.052010 118.144775 -55.236294 -84.591707 2.544500 0.004760 -14.165417 -7.125000 0.000000 0.000000 59.041432 16.695989 37.391538 -123.445140 51.139316 -87.432477 -0.174383 -0.358054 -30.506468 7.125000 0.000000 0.000000 
0.027734 17.602227 -1.167546 0.794676 -3.107155 4.295573 -24.256398 -7.980439 -7.531521 0.559412 5.464261 19.403139 -0.857358 7.646222 -11.247120 0.729900 -5.458600 -15.221200 26.026953 12.767487 -6.746719 -2.034052 -6.152309 21.783122 0.526483 -8.457139 -12.985609 -0.342600 3.761200 -10.405700 0.521289 4.114950 -2.030041 -1.644457 2.087130 -1.083032 4.145782 -6.662936 7.420829 2.160900 -3.346600 3.124200 -74.281446 -7.166731 61.997322 117.874754 -55.316113 -84.354263 2.463323 0.046809 -14.429195 -7.125000 0.000000 0.000000 60.248777 15.258063 37.937519 -123.220844 51.210735 -87.205256 -0.173915 -0.371219 -29.925284 7.125000 0.000000 0.000000 
